<?xml version="1.0" encoding="UTF-8"?>
<svg id="Layer_1" data-name="Layer 1" xmlns="http://www.w3.org/2000/svg" version="1.1" viewBox="0 0 279.18 157.27">
  <defs>
    <style>
      .cls-1 {
        fill: #1f5796;
        stroke-width: 0px;
      }
    </style>
  </defs>
  <path class="cls-1" d="M38.74,0c8.82,0,26.26,0,39.19,9.99,9.41,7.05,14.89,19.4,14.89,32.53,0,20.38-13.72,28.61-18.03,30.96,10.58,1.57,16.85,6.07,20.97,9.99,9.6,9.01,11.56,21.16,11.56,29.59,0,9.21-2.55,22.14-13.72,31.94-11.95,10.39-26.65,12.74-40.56,12.74H-.65V.2h39.39v-.2ZM30.31,65.45h8.82c4.9,0,24.3-.39,24.3-20.58,0-14.3-11.37-19.79-24.1-19.79h-9.21v40.37h.2ZM30.31,132.47h13.52c5.68,0,14.5-.2,21.36-4.31,7.64-4.51,9.8-11.95,9.8-18.22,0-4.9-1.76-13.52-11.76-18.03-6.66-3.14-14.7-3.14-21.36-3.14h-11.56v43.7Z"/>
  <polygon class="cls-1" points="251.55 0 189.04 0 219.41 107.19 251.55 0"/>
  <polygon class="cls-1" points="173.76 0 111.64 0 141.42 107.19 173.76 0"/>
  <polygon class="cls-1" points="150.04 157.55 210.01 157.55 180.81 57.61 150.04 157.55"/>
  <polygon class="cls-1" points="229.8 157.55 279.18 157.55 279.18 0 229.8 157.55"/>
</svg>