<?xml version="1.0" encoding="UTF-8"?>
<svg id="Layer_1" data-name="Layer 1" xmlns="http://www.w3.org/2000/svg" version="1.1" viewBox="0 0 56.39 54.12">
  <defs>
    <style>
      .cls-1 {
        fill: #98c4e4;
      }

      .cls-1, .cls-2, .cls-3 {
        stroke-width: 0px;
      }

      .cls-2 {
        fill: #1d5797;
      }

      .cls-3 {
        fill: #1e5797;
      }
    </style>
  </defs>
  <path class="cls-1" d="M1089.49,2922.35c-26.11,0-47.35-21.24-47.35-47.35s21.24-47.35,47.35-47.35,47.35,21.24,47.35,47.35-21.24,47.35-47.35,47.35ZM1089.49,2832.65c-23.35,0-42.35,19-42.35,42.35s19,42.35,42.35,42.35,42.35-19,42.35-42.35-19-42.35-42.35-42.35Z"/>
  <path class="cls-3" d="M1101.79,2898.6c-.98,0-1.89-.01-2.67-.03-2.09-.03-4.09-.45-6.12-.91-1.64-.37-3.23-.91-4.75-1.43-.57-.19-1.13-.39-1.7-.57-1.02-.33-2.05-.62-3.08-.92l-1.04-.3s-.09-.02-.23-.03c-.99-.04-1.88-.47-2.64-1.25-.47-.49-.76-1.13-.83-1.85-.01-.14-.01-.28-.01-.42v-5.03c0-5.15,0-10.3-.01-15.46,0-1.75,1.28-3.31,2.87-3.49.32-.04.59-.2,1.02-.61,1.35-1.3,2.51-2.74,3.74-4.27l.26-.33c1.05-1.31,2.16-2.6,3.23-3.85l.26-.3c.42-.49.74-1.11.97-1.88.32-1.08.56-2.22.76-3.2.01-.05.07-.35.18-.82l.03-.12c.05-.2.1-.38.16-.58l.09-.28c1.38-4.39,4.01-6.62,7.19-6.12.83.07,4.31.76,5.43,7.49v.02c.7,3.03.5,5.94-.61,8.63-.27.66-.59,1.27-.9,1.87-.04.07-.08.15-.11.22h.86c1.97,0,3.94.01,5.91-.01h.08c3.96,0,6.93,3.19,7.42,6.18.4,2.42-.1,4.61-1.49,6.52.59,2.17.41,4.22-.52,6.09-.11.22-.25.44-.38.65l-.06.09c.49,2.63-.12,5-1.81,7.05.04,1.44-.12,2.62-.51,3.69-.98,2.7-3.01,4.49-5.88,5.18-.85.21-1.74.32-2.64.35-.84.02-1.68.03-2.47.03ZM1093.36,2852l1.36.34c-.09.36-.13.59-.14.63l-.03.12c-.2.98-.45,2.18-.8,3.38-.34,1.16-.84,2.11-1.53,2.91l-.26.3c-1.06,1.23-2.15,2.51-3.18,3.78l-.26.33c-1.23,1.53-2.51,3.12-3.98,4.54-.59.57-1.42,1.24-2.65,1.38-.08.02-.38.28-.38.7.01,5.15.01,10.31.01,15.46v4.99c0,.11,0,.16,0,.21,0,.11.04.14.06.16.32.33.56.39.75.4.33.02.62.06.88.14l1.03.3c1.06.3,2.12.61,3.17.95.58.19,1.16.38,1.74.58,1.53.52,2.97,1.01,4.47,1.35,1.88.43,3.73.81,5.55.84,1.38.02,3.21.04,5.02,0,.71-.02,1.4-.11,2.06-.27,1.97-.47,3.25-1.59,3.9-3.41.29-.81.4-1.72.34-2.94-.02-.5.15-1.02.47-1.37,1.35-1.52,1.79-3.23,1.34-5.25-.1-.44-.02-.92.21-1.33.09-.16.19-.32.29-.48.08-.13.17-.26.24-.41.67-1.34.75-2.79.23-4.43-.26-.82.04-1.43.33-1.8,1.1-1.37,1.49-2.9,1.19-4.68-.31-1.86-2.25-3.84-4.66-3.84-.02,0-.03,0-.05,0-1.98.02-3.96.02-5.95.01h-5.11s.96-2.34.96-2.34c.13-.32.25-.63.39-.92.17-.35.35-.7.53-1.04.29-.57.57-1.11.8-1.65.88-2.14,1.04-4.48.47-6.97l-.02-.1c-.81-4.91-2.89-5.2-2.92-5.2l-.16-.02c-2.2-.38-3.47,2.08-4.14,4.21l-.04.14c-.07.25-.12.4-.15.54l-1.39-.22ZM1113.05,2889.63h0s0,0,0,0ZM1114.96,2882.54s0,0,0,0c0,0,0,0,0,0Z"/>
  <path class="cls-2" d="M1077.54,2870.09h0c-.11-1.75-1.5-3.13-3.24-3.23-.12,0-.24-.01-.37-.01h-2.43c-2.2,0-4.4,0-6.59,0h-.02c-1.21,0-2.22.49-2.93,1.43-.46.61-.68,1.34-.68,2.24v14.91c0,1.81,0,3.61,0,5.42,0,2.12,1.49,3.6,3.62,3.61h3.69c1.78,0,3.57,0,5.35,0,.39,0,.73-.04,1.04-.13,1.55-.41,2.56-1.78,2.56-3.48v-20.22c0-.18,0-.35-.01-.53ZM1068.88,2890.32c-1.92-.02-3.45-1.57-3.43-3.48.02-1.94,1.58-3.46,3.52-3.43,1.91.03,3.42,1.58,3.4,3.5-.02,1.9-1.58,3.43-3.49,3.41Z"/>
  <path class="cls-2" d="M16.25,25.6h0c-.11-1.75-1.5-3.13-3.24-3.23-.12,0-.24-.01-.37-.01h-2.43c-2.2,0-4.4,0-6.59,0h-.02c-1.21,0-2.22.49-2.93,1.43C.22,24.39,0,25.13,0,26.03v14.91c0,1.81,0,3.61,0,5.42,0,2.12,1.49,3.6,3.62,3.61h3.69c1.78,0,3.57,0,5.35,0,.39,0,.73-.04,1.04-.13,1.55-.41,2.56-1.78,2.56-3.48v-20.22c0-.18,0-.35-.01-.53ZM7.59,45.83c-1.92-.02-3.45-1.57-3.43-3.48.02-1.94,1.58-3.46,3.52-3.43,1.91.03,3.42,1.58,3.4,3.5-.02,1.9-1.58,3.43-3.49,3.41Z"/>
  <path class="cls-3" d="M56.26,24.46c-.49-2.99-3.46-6.18-7.42-6.18h-.08c-1.97.02-3.94.02-5.91.01h-.86c.04-.08.08-.15.11-.22.31-.6.63-1.21.9-1.87,1.11-2.69,1.31-5.6.62-8.63v-.02C42.49.83,39.02.14,38.18.07c-3.18-.5-5.81,1.73-7.19,6.12l-.09.28c-.06.2-.11.38-.16.58l-.03.12c-.12.47-.17.77-.18.82-.2.98-.44,2.12-.76,3.2-.23.77-.54,1.39-.97,1.88l-.26.3c-1.07,1.25-2.18,2.54-3.23,3.85l-.26.33c-1.23,1.53-2.4,2.98-3.74,4.27-.42.41-.7.57-1.02.61-1.59.18-2.87,1.75-2.87,3.49.02,5.15.01,10.3.01,15.46v5.03c0,.14,0,.28.01.42.07.71.35,1.35.83,1.85.75.79,1.64,1.21,2.64,1.25.14,0,.21.02.23.03l1.04.3c1.03.29,2.06.59,3.08.92.57.18,1.13.38,1.7.57,1.53.52,3.11,1.06,4.75,1.43,2.03.46,4.03.88,6.12.91.78.01,1.69.03,2.67.03.8,0,1.63,0,2.47-.03.9-.02,1.79-.14,2.64-.35,2.87-.69,4.9-2.48,5.88-5.18.39-1.08.55-2.26.51-3.69,1.69-2.05,2.3-4.42,1.81-7.05l.06-.09c.13-.21.27-.43.38-.65.93-1.88,1.11-3.92.52-6.09,1.39-1.91,1.89-4.1,1.49-6.52ZM52.3,29.6c-.29.37-.59.97-.33,1.8.52,1.64.44,3.09-.23,4.43-.07.14-.16.27-.24.41-.1.16-.2.32-.29.48-.23.41-.31.9-.21,1.33.45,2.01.01,3.73-1.34,5.25-.32.36-.49.87-.47,1.37.06,1.22-.04,2.13-.34,2.94-.66,1.82-1.94,2.94-3.9,3.41-.66.16-1.36.25-2.06.27-1.81.05-3.63.03-5.02,0-1.82-.03-3.66-.42-5.55-.84-1.5-.34-2.94-.83-4.47-1.35-.58-.2-1.16-.39-1.74-.58-1.05-.34-2.11-.64-3.17-.95l-1.03-.3c-.26-.08-.55-.12-.88-.14-.19,0-.43-.06-.75-.4-.02-.02-.05-.05-.06-.16,0-.05,0-.11,0-.21v-4.99c0-5.16,0-10.31-.01-15.46,0-.42.3-.68.38-.7,1.22-.14,2.06-.81,2.65-1.38,1.48-1.42,2.75-3,3.98-4.54l.26-.33c1.03-1.28,2.12-2.55,3.18-3.78l.26-.3c.68-.8,1.18-1.75,1.53-2.91.35-1.19.61-2.4.8-3.38l.03-.12s.05-.28.14-.63l.03-.12c.04-.14.08-.29.15-.54l.04-.14c.67-2.13,1.93-4.59,4.14-4.21l.16.02s2.1.29,2.92,5.2l.02.1c.57,2.49.42,4.83-.47,6.97-.23.54-.5,1.08-.8,1.65-.18.35-.36.69-.53,1.04-.14.3-.27.6-.39.92l-.96,2.34h5.11c1.98.01,3.96.01,5.95,0,.02,0,.03,0,.05,0,2.41,0,4.35,1.98,4.66,3.84.29,1.79-.09,3.32-1.19,4.68Z"/>
</svg>