<?xml version="1.0" encoding="UTF-8"?>
<svg id="Layer_1" data-name="Layer 1" xmlns="http://www.w3.org/2000/svg" version="1.1" viewBox="0 0 57.41 43.57">
  <defs>
    <style>
      .cls-1 {
        fill: #1f5796;
        stroke-width: 0px;
      }
    </style>
  </defs>
  <path class="cls-1" d="M50.43,43.57H6.84l-.2-.08C2.73,42.92.01,39.82,0,35.9,0,27.53,0,18.56,0,7.66,0,4.18,2.25,1.21,5.57.28c.28-.08.55-.13.8-.19.1-.02.21-.04.31-.07l.14-.03h43.77l.2.07s.02,0,.03,0c3.02.44,5.48,2.61,6.28,5.55.1.36.15.69.21,1.02.02.13.04.26.07.39l.02.12v29.32l-.05.18s-.01.04-.02.06c-.4,3.11-2.16,5.33-5.09,6.42-.43.16-.86.24-1.23.32-.15.03-.29.06-.43.09l-.15.03ZM7.3,40.93h42.84c.12-.03.25-.05.37-.07.3-.06.59-.11.81-.2,2.06-.77,3.15-2.15,3.41-4.36,0-.08.02-.14.04-.2V7.4c-.02-.11-.04-.21-.05-.32-.05-.28-.09-.53-.15-.76-.54-1.98-2.15-3.38-4.2-3.65-.07,0-.13-.02-.19-.04H7.12c-.07.01-.14.03-.21.04-.22.05-.43.09-.62.14-2.18.61-3.64,2.55-3.64,4.84,0,10.9,0,19.87,0,28.24,0,2.6,1.85,4.66,4.49,5,.06,0,.12.02.17.03ZM57.35,36.62s0,0,0,0c0,0,0,0,0,0Z"/>
  <path class="cls-1" d="M26.44,15.25c.11,3.59-2.98,6.65-6.61,6.56-3.92-.1-6.54-3.1-6.53-6.67,0-3.55,2.97-6.45,6.58-6.47,3.69-.02,6.58,2.88,6.56,6.58Z"/>
  <path class="cls-1" d="M26.32,24.63c-.5-.12-1.01-.2-1.52-.25h-10.46c-3.05.36-5.84,2.74-6.28,6.51-.28,2.38-.27,4.11,3.45,4,3.56-.1,7.12-.02,10.69-.02,2.35,0,4.69,0,7.04,0,1.13,0,2.23-.36,2.39-1.57.53-3.97-1-7.63-5.31-8.68Z"/>
  <rect class="cls-1" x="32.96" y="20.53" width="16.49" height="3.52" rx="1.76" ry="1.76"/>
  <rect class="cls-1" x="37.63" y="29.51" width="11.82" height="3.52" rx="1.76" ry="1.76"/>
  <rect class="cls-1" x="30.31" y="11.54" width="19.14" height="3.52" rx="1.76" ry="1.76"/>
</svg>