<?xml version="1.0" encoding="UTF-8"?>
<svg id="Layer_1" data-name="Layer 1" xmlns="http://www.w3.org/2000/svg" version="1.1" viewBox="0 0 41.24 40.11">
  <defs>
    <style>
      .cls-1 {
        fill: #fff;
        stroke-width: 0px;
      }
    </style>
  </defs>
  <path class="cls-1" d="M20.62,16.3c2.62,0,4.75-2.13,4.75-4.75s-2.13-4.75-4.75-4.75-4.75,2.13-4.75,4.75,2.13,4.75,4.75,4.75ZM18.57,11.55c0-1.15.9-2.05,2.05-2.05s2.05.9,2.05,2.05-.9,2.05-2.05,2.05-2.05-.9-2.05-2.05Z"/>
  <path class="cls-1" d="M19.55,33.63l1.07,1.4,1.07-1.4s2.63-3.45,5.19-7.8c3.56-6.04,5.29-10.71,5.29-14.28,0-6.37-5.18-11.55-11.55-11.55s-11.55,5.18-11.55,11.55c0,3.57,1.73,8.24,5.29,14.28,2.56,4.35,5.17,7.77,5.19,7.8ZM11.77,11.55c0-4.88,3.97-8.85,8.85-8.85s8.85,3.97,8.85,8.85c0,2.9-1.79,7.61-4.91,12.91-1.78,3.02-3.18,4.96-3.94,5.98-.76-1.02-2.16-2.96-3.94-5.98-3.12-5.3-4.91-10-4.91-12.91Z"/>
  <path class="cls-1" d="M36.03,25.51h-7.15l-.14.25c-.33.58-.66,1.14-.99,1.69l-.46.76h6.84l3.29,9.2H3.83l3.29-9.2h6.84l-.46-.76c-.33-.55-.66-1.11-.99-1.69l-.14-.25h-7.15L0,40.11h41.24l-5.22-14.6Z"/>
</svg>