<?xml version="1.0" encoding="UTF-8"?>
<svg id="Layer_1" data-name="Layer 1" xmlns="http://www.w3.org/2000/svg" version="1.1" viewBox="0 0 138.03 138.08">
  <defs>
    <style>
      .cls-1 {
        fill: #98c4e4;
      }

      .cls-1, .cls-2 {
        stroke-width: 0px;
      }

      .cls-2 {
        fill: #1f5796;
      }
    </style>
  </defs>
  <path class="cls-1" d="M68.99,138.08C30.93,138.08-.05,107.11-.05,69.04S30.93,0,68.99,0s69.04,30.97,69.04,69.04-30.97,69.04-69.04,69.04ZM68.99,7.29C34.95,7.29,7.25,34.99,7.25,69.04s27.7,61.75,61.75,61.75,61.75-27.7,61.75-61.75S103.04,7.29,68.99,7.29Z"/>
  <path class="cls-2" d="M42.4,69.01c0-9.31,0-18.62,0-27.92,0-.44,0-.89.08-1.33.34-2.07,2.05-3.59,4.15-3.7.27-.01.54,0,.82,0,10.69,0,21.39.02,32.08-.01,2.3,0,4.17.74,5.77,2.4,2.51,2.6,5.08,5.14,7.66,7.67,1.52,1.49,2.24,3.25,2.24,5.38-.02,15.25-.01,30.5,0,45.75,0,1.52-.43,2.83-1.64,3.81-.75.62-1.62.94-2.59.98-.25,0-.49,0-.74,0-14.28,0-28.57,0-42.85,0-.47,0-.95,0-1.4-.09-2-.38-3.43-2.05-3.56-4.12-.02-.35-.01-.69-.01-1.04,0-9.26,0-18.52,0-27.78ZM90.69,97.57c.16-.82.13-43.28-.04-43.9-.25,0-.52,0-.78,0-2.5,0-5,.02-7.5-.01-.66,0-1.35-.09-1.96-.32-1.74-.63-2.8-2.23-2.81-4.15-.02-2.6,0-5.2,0-7.8,0-.29-.02-.57-.04-.84-1.26-.16-30.13-.1-30.67.06v56.96h43.81Z"/>
  <path class="cls-2" d="M68.77,64.66c-4.21,0-8.41,0-12.62,0-.34,0-.7,0-1.03-.08-1.07-.23-1.8-1.23-1.71-2.29.09-1.08.95-1.94,2.03-2.03.22-.02.45-.01.67-.01,8.46,0,16.92,0,25.39,0,.22,0,.45,0,.67.01,1.12.09,1.98.98,2.03,2.09.05,1.09-.68,2.03-1.76,2.24-.31.06-.64.06-.96.06-4.23,0-8.46,0-12.69,0Z"/>
  <path class="cls-2" d="M68.76,77.84c-4.18,0-8.36,0-12.54,0-.32,0-.65,0-.96-.04-1.07-.16-1.86-1.11-1.85-2.18.01-1.11.87-2.04,1.97-2.15.25-.02.49-.02.74-.02,8.44,0,16.87,0,25.31,0,.25,0,.5,0,.74.02,1.16.09,2.01,1.01,2.02,2.17,0,1.13-.79,2.05-1.92,2.18-.32.04-.64.03-.96.03-4.18,0-8.36,0-12.54,0Z"/>
  <path class="cls-2" d="M62.23,91.04c-2.18,0-4.35.01-6.53,0-1.13,0-1.93-.62-2.21-1.63-.33-1.2.43-2.46,1.65-2.71.31-.06.64-.07.96-.07,4.05,0,8.11,0,12.16,0,.27,0,.55,0,.81.04,1.11.14,1.94,1.09,1.93,2.18-.01,1.1-.85,2.03-1.96,2.16-.27.03-.54.02-.81.02-2,0-4,0-6.01,0h0Z"/>
</svg>