<?xml version="1.0" encoding="UTF-8"?>
<svg id="Layer_1" data-name="Layer 1" xmlns="http://www.w3.org/2000/svg" version="1.1" viewBox="0 0 67.72 81.81">
  <defs>
    <style>
      .cls-1 {
        fill: #e8f6fc;
      }

      .cls-1, .cls-2 {
        stroke-width: 0px;
      }

      .cls-2 {
        fill: #fff;
      }
    </style>
  </defs>
  <path class="cls-2" d="M57.47,51.14c-.16-2.85.23-5.68,1.1-8.36.33-1.02-.4-2.06-1.47-2.06h-9.28c-.62,0-1.18-.37-1.43-.94l-2.89-6.73c-.25-.57-.81-.94-1.43-.94h-14.28c-.62,0-1.18.37-1.43.94l-2.89,6.73c-.25.57-.81.94-1.43.94h-11.44c-1.07,0-1.8,1.05-1.47,2.06.87,2.68,1.27,5.51,1.11,8.36-.1,1.73-.28,3.44-.44,5.09-.97,9.66-1.29,25.41,6.86,25.41,11.51,0-.07-22.72,15.3-28.82.28-.11.72-.2,1.1-.26.65-.1,1.32-.12,1.96.03.25.06.5.13.74.23,15.37,6.1,3.79,28.82,15.3,28.82,8.15,0,7.82-15.75,6.86-25.41-.16-1.64-.34-3.36-.44-5.09Z"/>
  <path class="cls-1" d="M66.36,19.31C65.67,9.1,57.36.84,47.14.21c-4.06-.25-7.9.68-11.18,2.49,0,0-.32.21,0,.43,1.64,1.15,6.3,4.1,6.3,4.1-3.42-.5-10.48-4.54-10.48-4.54C28.49.89,24.66-.04,20.59.21,10.37.84,2.06,9.1,1.36,19.31c-.05.74-.06,1.47-.03,2.2.13,3.43,1.29,6.75,3.14,9.65l1.79,2.81c.07.11.14.22.21.33.43.58,1.59,1.72,4.12,1.72h8.16c2.58,0,3.7-1.54,4.1-2.32l2.31-5.36h0s.38-.93,1.33-.93h16.07c1.62,0,2.09.75,2.2.99l2.4,5.58c.35.65,1.48,2.04,4.89,2.04h4.2c3.97,0,5.23-2.05,5.23-2.05l1.76-2.77c2.05-3.23,3.23-6.97,3.17-10.8,0-.36-.02-.73-.05-1.09ZM15.68,7.92c-5.96,7.83-6.37,17.23-6.37,17.32l-.08,2.26-.79-2.12c-1.06-2.82-1.28-5.73-.63-8.41.05-.21.1-.41.16-.62h0c1.09-3.87,3.63-7.1,7.14-9.11l1.93-1.11-1.35,1.77Z"/>
</svg>