<?xml version="1.0" encoding="UTF-8"?>
<svg id="Layer_1" data-name="Layer 1" xmlns="http://www.w3.org/2000/svg" version="1.1" viewBox="0 0 67.72 51.98">
  <defs>
    <style>
      .cls-1 {
        fill: #fff;
        stroke-width: 0px;
      }
    </style>
  </defs>
  <path class="cls-1" d="M63.59,20.62c2.31-.28,3.66-1.68,3.73-3.75.05-1.67-.05-3.35.03-5.02.11-2.18-.74-3.94-2.47-5.09-1.77-1.18-3.65-2.28-5.63-3.04-5.82-2.23-11.93-3.09-18.12-3.47C31.74-.32,22.42-.02,13.24,2.19c-3.34.81-6.61,1.88-9.49,3.84-1.48,1-3.01,2.17-3.19,4.01-.25,2.54-.22,5.14-.02,7.7.14,1.79,1.86,2.93,3.66,2.73-.15-2.3-.04-4.6,2.14-6.06,2.19-1.47,4.37-1.12,6.52.33.99-1.79,2.44-2.87,4.37-3.18,1.98-.33,3.67.42,5.16,1.69,2.32-3.93,7.5-5.31,11.48-.99,3.81-4.13,8.94-3.16,11.47.99,1.49-1.3,3.2-2,5.19-1.68,1.97.32,3.39,1.51,4.38,3.2,2.21-1.57,4.36-1.75,6.49-.32,2.18,1.46,2.2,3.8,2.21,6.18Z"/>
  <path class="cls-1" d="M4.14,31.41c-2.19-.04-3.71,1.49-3.79,3.77-.06,1.63.04,3.27-.03,4.89-.08,2.06.72,3.7,2.3,4.93,1.01.79,2.1,1.5,3.23,2.09,3.7,1.9,7.71,2.86,11.77,3.57,8.25,1.44,16.57,1.63,24.9.97,5.4-.43,10.74-1.25,15.88-3.05,2.56-.9,5.12-1.9,7-3.93.86-.93,1.64-2.2,1.81-3.41.29-2.11.16-4.29.07-6.43-.09-2-1.71-3.45-3.69-3.37,0,2.28-.04,4.61-2.21,6.09-2.18,1.48-4.36,1.21-6.43-.27-2.64,3.73-6.15,4.19-9.73,1.52-1.25,2.05-2.97,3.42-5.46,3.57-2.45.15-4.38-.86-5.9-2.73-3.24,3.69-8.38,3.92-11.49-.8-3.58,2.65-7.06,2.13-9.66-1.58-2.03,1.5-4.17,1.73-6.34.34-2.28-1.46-2.3-3.84-2.23-6.17Z"/>
  <path class="cls-1" d="M32.69,27.13c-2.84,0-5.49-.02-8.13.03-.21,0-.59.48-.59.74-.03,2.78-.1,5.57.03,8.35.12,2.4,2.26,4.08,4.69,3.92,2.33-.15,4.1-2.12,4.04-4.47-.03-1.33-.03-2.65-.03-3.98,0-1.49,0-2.97,0-4.59Z"/>
  <path class="cls-1" d="M24.14,24.81h8.67c0-2.95.03-5.8,0-8.66-.03-2.25-1.69-4.06-3.84-4.27-2.38-.23-4.57,1.13-4.76,3.48-.25,3.09-.06,6.22-.06,9.46Z"/>
  <path class="cls-1" d="M43.56,27.1c-2.78,0-5.46-.02-8.15.03-.21,0-.58.49-.58.75-.04,2.7-.11,5.4.02,8.09.11,2.33,1.94,4.04,4.15,4.13,2.22.09,4.36-1.38,4.51-3.54.21-3.1.05-6.22.05-9.47Z"/>
  <path class="cls-1" d="M43.62,24.84c0-3.31.13-6.44-.04-9.55-.11-2.05-2.29-3.64-4.37-3.57-2.19.07-4.12,1.77-4.21,3.92-.11,2.78-.06,5.57-.02,8.35,0,.28.42.8.66.81,2.6.06,5.21.04,7.98.04Z"/>
  <path class="cls-1" d="M14.47,20.61c0,1.11.01,2.23,0,3.34-.01.62.17.96.87.95,1.89-.03,3.77.03,5.66-.04.31-.01.85-.48.86-.74.06-2.31.12-4.64-.02-6.94-.13-2.09-1.82-3.51-3.77-3.45-2.01.06-3.51,1.64-3.59,3.8-.04,1.03,0,2.06,0,3.09Z"/>
  <path class="cls-1" d="M14.52,27.15c0,2.73-.11,5.29.04,7.84.11,1.82,1.67,3.13,3.43,3.25,1.67.11,3.55-1.07,3.68-2.75.21-2.75.06-5.52.06-8.34h-7.21Z"/>
  <path class="cls-1" d="M45.85,24.8h7.27c0-2.73.11-5.38-.04-8.02-.1-1.78-1.91-3.12-3.7-3.06-1.76.05-3.43,1.42-3.5,3.15-.11,2.6-.03,5.21-.03,7.93Z"/>
  <path class="cls-1" d="M45.83,27.14c0,2.59-.03,5.03,0,7.47.03,2.01,1.66,3.61,3.61,3.63,1.94.03,3.63-1.54,3.7-3.54.06-1.84.02-3.69.02-5.54,0-.67,0-1.33,0-2.02h-7.34Z"/>
  <path class="cls-1" d="M12.18,21.31h-.01c0-.9.04-1.8,0-2.69-.1-1.68-1.28-2.83-2.86-2.87-1.66-.04-2.96,1.08-3.05,2.81-.1,1.83-.06,3.68,0,5.52.01.28.51.77.81.79,1.41.08,2.82.02,4.23.05.66.01.93-.23.9-.9-.03-.9,0-1.8,0-2.69Z"/>
  <path class="cls-1" d="M55.42,24.89c1.83,0,3.49-.02,5.16,0,.75.01.81-.43.81-1-.01-1.71.03-3.43-.02-5.14-.05-1.71-1.18-2.92-2.74-3.01-1.68-.1-3.05.93-3.17,2.67-.14,2.08-.03,4.18-.03,6.47Z"/>
  <path class="cls-1" d="M55.59,27.16c0,2.29-.12,4.51.04,6.71.1,1.44,1.5,2.4,2.92,2.36,1.36-.04,2.72-1.05,2.8-2.37.12-2.2.03-4.42.03-6.69h-5.79Z"/>
  <path class="cls-1" d="M6.38,27.16c0,2.28-.07,4.45.03,6.62.06,1.34,1.35,2.38,2.71,2.45,1.36.07,2.81-.8,2.97-2.14.26-2.27.26-4.57.38-6.93h-6.08Z"/>
  <path class="cls-1" d="M63.59,20.62c0-2.38-.02-4.72-2.21-6.18-2.14-1.43-4.28-1.25-6.49.32-.99-1.69-2.41-2.88-4.38-3.2-1.99-.32-3.7.38-5.19,1.68-2.52-4.16-7.66-5.12-11.47-.99-3.98-4.31-9.16-2.94-11.48.99-1.49-1.26-3.18-2.01-5.16-1.69-1.93.32-3.38,1.39-4.37,3.18-2.15-1.45-4.33-1.8-6.52-.33-2.18,1.46-2.29,3.76-2.14,6.06-1.79.2-3.52-.94-3.66-2.73-.2-2.55-.23-5.15.02-7.7.18-1.85,1.72-3.01,3.19-4.01,2.89-1.96,6.15-3.03,9.49-3.84C22.42-.02,31.74-.32,41.12.25c6.19.38,12.31,1.23,18.12,3.47,1.98.76,3.86,1.85,5.63,3.04,1.73,1.16,2.57,2.92,2.47,5.09-.08,1.67.02,3.35-.03,5.02-.06,2.07-1.42,3.47-3.73,3.75Z"/>
  <path class="cls-1" d="M4.14,31.41c-.07,2.33-.04,4.7,2.23,6.17,2.17,1.39,4.31,1.16,6.34-.34,2.61,3.71,6.09,4.23,9.66,1.58,3.11,4.71,8.25,4.49,11.49.8,1.51,1.87,3.45,2.89,5.9,2.73,2.49-.16,4.21-1.52,5.46-3.57,3.58,2.68,7.09,2.22,9.73-1.52,2.07,1.48,4.25,1.75,6.43.27,2.17-1.47,2.21-3.81,2.21-6.09,1.98-.08,3.61,1.37,3.69,3.37.09,2.14.23,4.32-.07,6.43-.17,1.21-.96,2.49-1.81,3.41-1.88,2.03-4.44,3.04-7,3.93-5.14,1.8-10.48,2.62-15.88,3.05-8.33.66-16.64.47-24.9-.97-4.07-.71-8.07-1.66-11.77-3.57-1.14-.58-2.23-1.3-3.23-2.09-1.58-1.23-2.39-2.86-2.3-4.93.07-1.63-.03-3.26.03-4.89.08-2.28,1.6-3.81,3.79-3.77Z"/>
  <path class="cls-1" d="M32.69,27.13c0,1.62,0,3.1,0,4.59,0,1.33,0,2.65.03,3.98.06,2.35-1.7,4.32-4.04,4.47-2.43.16-4.57-1.52-4.69-3.92-.13-2.78-.06-5.56-.03-8.35,0-.26.38-.73.59-.74,2.64-.05,5.29-.03,8.13-.03Z"/>
  <path class="cls-1" d="M24.14,24.81c0-3.23-.19-6.36.06-9.46.19-2.34,2.38-3.71,4.76-3.48,2.15.21,3.81,2.02,3.84,4.27.04,2.86,0,5.72,0,8.66h-8.67Z"/>
  <path class="cls-1" d="M43.56,27.1c0,3.25.15,6.37-.05,9.47-.14,2.15-2.29,3.63-4.51,3.54-2.2-.09-4.04-1.8-4.15-4.13-.12-2.69-.06-5.4-.02-8.09,0-.26.37-.75.58-.75,2.68-.05,5.37-.03,8.15-.03Z"/>
  <path class="cls-1" d="M43.62,24.84c-2.77,0-5.38.02-7.98-.04-.24,0-.65-.52-.66-.81-.04-2.78-.09-5.57.02-8.35.08-2.15,2.01-3.85,4.21-3.92,2.08-.07,4.26,1.52,4.37,3.57.17,3.11.04,6.24.04,9.55Z"/>
  <path class="cls-1" d="M14.47,20.61c0-1.03-.03-2.06,0-3.09.08-2.16,1.58-3.74,3.59-3.8,1.95-.06,3.64,1.36,3.77,3.45.14,2.31.08,4.63.02,6.94,0,.27-.55.73-.86.74-1.88.07-3.77.02-5.66.04-.7.01-.88-.33-.87-.95.02-1.11,0-2.23,0-3.34Z"/>
  <path class="cls-1" d="M14.52,27.15h7.21c0,2.82.16,5.59-.06,8.34-.13,1.68-2.01,2.86-3.68,2.75-1.76-.11-3.33-1.43-3.43-3.25-.15-2.55-.04-5.12-.04-7.84Z"/>
  <path class="cls-1" d="M45.85,24.8c0-2.72-.08-5.33.03-7.93.07-1.73,1.74-3.1,3.5-3.15,1.8-.05,3.6,1.29,3.7,3.06.15,2.63.04,5.28.04,8.02h-7.27Z"/>
  <path class="cls-1" d="M45.83,27.14h7.34c0,.69,0,1.36,0,2.02,0,1.85.04,3.69-.02,5.54-.07,2-1.76,3.57-3.7,3.54-1.95-.03-3.58-1.62-3.61-3.63-.04-2.44,0-4.88,0-7.47Z"/>
  <path class="cls-1" d="M12.18,21.31c0,.9-.03,1.8,0,2.69.03.67-.25.91-.9.9-1.41-.03-2.83.04-4.23-.05-.3-.02-.79-.5-.81-.79-.07-1.84-.1-3.68,0-5.52.09-1.73,1.39-2.84,3.05-2.81,1.59.03,2.76,1.18,2.86,2.87.05.9,0,1.8,0,2.69h.01Z"/>
  <path class="cls-1" d="M6.38,27.16h6.08c-.11,2.36-.11,4.66-.38,6.93-.16,1.34-1.6,2.21-2.97,2.14-1.36-.07-2.65-1.11-2.71-2.45-.1-2.17-.03-4.34-.03-6.62Z"/>
</svg>