<?xml version="1.0" encoding="UTF-8"?>
<svg id="Layer_1" data-name="Layer 1" xmlns="http://www.w3.org/2000/svg" version="1.1" viewBox="0 0 44.28 30.46">
  <defs>
    <style>
      .cls-1 {
        fill: #fff;
        stroke-width: 0px;
      }
    </style>
  </defs>
  <path class="cls-1" d="M44.28,5.1c0-.23-.01-.47-.04-.7C43.94,1.9,41.83.01,39.32,0c-.61,0-1.23,0-1.84,0h-15.35s-5.31,0-5.31,0H4.99c-.31,0-.62.03-.9.08C1.69.55,0,2.58,0,5.04v4.55S0,25.43,0,25.43c0,2.82,2.2,5.03,5.02,5.04h1.93s.88,0,.88,0h31.39c.8,0,1.48-.14,2.08-.43,1.96-.93,2.97-2.5,2.99-4.67.01-1.32,0-2.64,0-3.95V5.1ZM41.66,11.3v2.2c0,3.89,0,7.78,0,11.67,0,.05,0,.09,0,.14l-12.09-9.17,12.01-11.16c.06.24.09.49.09.77,0,1.85,0,3.71,0,5.56ZM16.29,17.8l1.3,1.19c.36.33.72.67,1.08,1,1.96,1.78,4.9,1.75,6.83-.07.61-.58,1.23-1.15,1.85-1.72l.5-.46,12.8,9.6c-.46.38-.98.61-1.6.69-.27.04-.56.05-.83.05H8.04c-.89,0-1.77,0-2.65,0-.64,0-1.19-.14-1.67-.42l12.57-9.86ZM20.29,18.31L3.66,3.12c.38-.24.78-.39,1.23-.45.23-.03.46-.05.69-.05h30.56c.81,0,1.63,0,2.44,0,.62,0,1.17.17,1.68.5l-16.42,15.17c-.99.92-2.56.93-3.55.02ZM14.56,16.22L2.45,25.88c-.02-.13-.04-.26-.05-.4-.01-.11,0-.23,0-.44V5.68c0-.21,0-.44.05-.68l12.12,11.22Z"/>
</svg>