<?xml version="1.0" encoding="UTF-8"?>
<svg id="Layer_1" data-name="Layer 1" xmlns="http://www.w3.org/2000/svg" version="1.1" viewBox="0 0 67.61 67.61">
  <defs>
    <style>
      .cls-1 {
        fill: #fff;
        stroke-width: 0px;
      }
    </style>
  </defs>
  <path class="cls-1" d="M49.19,47.44c-.26.04-.51.07-.77.11-.4.06-.82.12-1.23.17-.62.08-1.27.15-1.93.22-.31.03-.63.05-.93.08-.23.02-.46.03-.69.05-.26.02-.51.05-.77.07-.38.04-.77.08-1.16.1-.18.01-.36.01-.53.01-.18,0-.34,0-.51.01-.29.02-.58.06-.87.09-.5.06-1.02.12-1.54.13-2.11.02-4.25.02-6.32.01-.79,0-1.58,0-2.38,0h-.05c-.06,0-.12,0-.18,0-.98-.06-1.97-.13-2.95-.2l-.86-.06c-.06,0-.12,0-.19-.01-.27-.03-.54-.05-.8-.08-.55-.05-1.1-.11-1.65-.16-.13-.01-.26-.02-.4-.02-.2,0-.41-.02-.62-.05-.51-.07-1.02-.15-1.52-.23-.43-.07-.85-.13-1.28-.2-.22-.03-.46-.05-.76-.06,0,0,0,0,0,0,.02.02.05.06.07.1.48.86,1.16,1.71,2.12,2.68.79.79,1.71,1.53,2.72,2.17.78.5,1.65.96,2.66,1.42.56.25,1.15.45,1.73.64.17.06.33.11.5.17.08.03.18.04.29.05.09.01.19.02.29.04.2.05.4.1.6.15.32.08.65.17.98.23.2.04.4.04.61.05.16,0,.32.01.49.03.59.07,1.18.14,1.75.21.22.03.43.06.64.08.24-.03.48-.05.71-.08.54-.06,1.05-.11,1.56-.18.21-.03.42-.04.62-.05.47-.03.92-.06,1.35-.23.23-.09.46-.14.69-.18.13-.03.26-.05.38-.09.5-.14,1.02-.28,1.53-.44.31-.1.62-.23.9-.35.11-.05.23-.1.35-.15.39-.17.8-.34,1.18-.54.57-.3,1.11-.63,1.6-.95l.14-.09c.37-.24.75-.48,1.07-.77.71-.66,1.54-1.45,2.3-2.3.33-.37.62-.8.89-1.22.1-.15.2-.3.3-.45-.05,0-.11,0-.16,0Z"/>
  <path class="cls-1" d="M33.81,0C15.14,0,0,15.14,0,33.81s15.14,33.81,33.81,33.81,33.81-15.14,33.81-33.81S52.48,0,33.81,0ZM39.95,31.56c.61-2,1.63-3.76,3.22-5.15.49-.43,1.05-.77,1.68-1.03.51-.21,1.01-.22,1.65-.24,1.14-.1,2.09.54,2.98,1.32.89.78,1.61,1.71,2.15,2.77.34.66.7,1.32.98,2.01.12.3.09.68.08,1.02,0,.07-.22.2-.34.19-.53-.03-.89-.42-1.29-.69-.79-.54-1.59-1.04-2.51-1.35-.81-.28-1.63-.52-2.49-.44-.64.06-1.28.21-1.9.41-1.19.37-2.17,1.13-3.14,1.9-.08.07-.19.15-.29.15-.25.01-.65.08-.73-.04-.13-.2-.14-.56-.06-.81ZM27.72,31.38c.06.15.11.32.1.48-.01.18-.06.49-.16.52-.21.06-.51.05-.7-.06-.78-.46-1.51-1-2.29-1.45-.62-.36-1.27-.68-2.02-.73-.31-.03-.63-.19-.94-.18-.59.02-1.19.1-1.77.21-1.33.24-2.39,1.01-3.44,1.79-.29.21-.61.39-.95.51-.38.14-.53-.03-.57-.44-.06-.62.23-1.14.46-1.66.28-.62.61-1.22.95-1.81.49-.84,1.13-1.57,1.87-2.19.4-.34.84-.65,1.31-.87.56-.26,1.15-.48,1.72-.35,1.42-.11,2.45.53,3.36,1.39,1.01.94,1.8,2.06,2.37,3.33.23.5.46,1,.67,1.5ZM12.79,22.97c.1-.4.16-.83.36-1.18.38-.68.82-1.33,1.27-1.97.85-1.2,1.86-2.26,3.11-3.06.54-.35,1.09-.69,1.65-1.01.23-.13.5-.22.76-.3.44-.13.88-.25,1.33-.36.49-.12.99-.22,1.48-.31.12-.02.25,0,.37,0,.62,0,1.19.11,1.66.59.47.47.45,1.15-.33,1.41-.67.23-1.37.37-2.05.58-.63.19-1.29.33-1.87.62-.81.39-1.58.86-2.33,1.35-1.12.72-2.12,1.57-3.03,2.55-.36.38-.69.79-1.04,1.17-.14.15-.3.32-.49.39-.19.07-.43.06-.63.02-.23-.05-.26-.28-.21-.46ZM54.71,38.95c-.01,1-.03,2.04-.31,3.06-.09.34-.15.68-.21,1.05-.04.26-.09.52-.15.79-.09.4-.23.78-.35,1.1l-.1.26c-.2.54-.41,1.11-.66,1.65-.31.66-.61,1.21-.94,1.71-.46.7-.97,1.43-1.55,2.11-.74.86-1.43,1.56-2.11,2.14-.84.72-1.77,1.35-2.49,1.82-.47.31-.98.55-1.48.79-.14.07-.27.13-.41.2-.51.25-.97.46-1.4.62-.37.15-.75.27-1.12.38l-.26.08c-.12.04-.25.08-.37.12-.37.12-.74.25-1.13.33-.65.15-1.37.28-2.26.41-.55.08-1.16.15-1.9.21-.41.03-.82.05-1.22.07-.11,0-.21,0-.32.01l-.02.1-.24-.03c-.32-.03-.64-.07-.96-.1-.75-.08-1.52-.16-2.28-.25-.87-.11-1.57-.22-2.21-.35-.39-.08-.78-.21-1.15-.33-.12-.04-.24-.08-.36-.12-.15-.05-.31-.09-.46-.14-.51-.16-1.04-.32-1.55-.51-.5-.19-.98-.43-1.43-.67l-.14-.07c-.54-.28-1.09-.57-1.61-.91-.62-.41-1.43-.96-2.19-1.58-1.2-.98-2.21-2.06-3.02-3.23-.47-.68-.92-1.43-1.34-2.24-.42-.82-.77-1.68-1.03-2.33-.16-.4-.25-.82-.35-1.23-.02-.08-.04-.17-.06-.25-.14-.57-.26-1.15-.38-1.71l-.04-.21c-.05-.23-.1-.46-.12-.7-.01-.16-.02-.31-.03-.47-.05-.62-.1-1.27-.1-1.91,0-.6.24-1.12.66-1.45.43-.33,1-.44,1.58-.3.91.23,1.81.48,2.49.67.21.06.42.13.62.2.25.09.5.17.74.23.41.1.83.19,1.24.27.23.05.46.09.69.14.22.05.44.1.65.15.35.08.72.17,1.08.24.74.14,1.49.26,2.22.38l.22.04c.41.07.9.14,1.4.2.19.02.39.04.58.05.29.02.59.04.89.09,1.05.18,2.14.21,3.2.24.3,0,.59.02.89.03.27.01.55.03.81.05.39.03.8.07,1.2.06.72-.02,1.45-.06,2.16-.11.38-.02.77-.05,1.16-.07.15,0,.29,0,.44,0,.17,0,.33,0,.49,0,.82-.07,1.64-.16,2.34-.24.59-.07,1.2-.14,1.78-.22l.59-.07c.13-.02.27-.03.41-.06.71-.14,1.42-.28,2.13-.43l.43-.09c.47-.09.96-.19,1.44-.29.4-.08.78-.17,1.17-.28.28-.08.57-.17.85-.26.22-.07.44-.14.65-.21.24-.07.48-.14.71-.2.15-.04.31-.08.46-.13.14-.04.28-.08.42-.13.28-.09.57-.18.87-.24.6-.12,1.17,0,1.58.35.37.31.57.76.56,1.28,0,.15,0,.3,0,.44ZM54.6,23.37c-.1.06-.36.01-.46-.08-.57-.53-1.1-1.11-1.67-1.65-.66-.62-1.31-1.26-2.03-1.8-.77-.58-1.59-1.1-2.43-1.57-.52-.29-1.11-.47-1.68-.67-.53-.18-1.07-.33-1.61-.49-.33-.1-.67-.19-1-.32-.29-.11-.58-.25-.85-.41-.23-.14-.24-.45-.08-.67.42-.63,1.03-.86,1.88-.89.21.04.55.09.88.16.61.14,1.22.27,1.82.47.51.16,1,.38,1.48.62,1.31.67,2.43,1.58,3.41,2.66.82.9,1.51,1.91,2.1,2.97.19.34.28.73.43,1.1.11.26-.03.46-.2.57Z"/>
  <path class="cls-1" d="M16.09,39.71c-.07,1.28.23,2.54.52,3.76l.05.19c.1.42.25.88.47,1.44,2.18.4,7.79,1.22,16.68,1.22,0,0,12.43-.17,16.68-1.21.07-.16.14-.31.2-.48l.03-.08c.03-.1.07-.19.11-.29.12-.32.23-.62.3-.93.11-.49.19-1,.27-1.5.02-.12.04-.23.06-.35.07-.42.13-.86.18-1.31.02-.13.02-.27.03-.41,0-.11.01-.22.02-.33,0-.07,0-.1-.01-.11,0,0-.03,0-.07,0-.21.06-.42.13-.62.2-.12.04-.25.08-.37.12-.76.24-1.52.49-2.29.73-.06.02-.11.02-.14.02,0,0,0,0-.01,0-.13.03-.26.06-.4.08-.37.08-.76.16-1.13.24-.23.05-.46.11-.68.17-.35.09-.71.18-1.06.25-.45.09-.9.15-1.34.21-.15.02-.3.04-.45.06-.1.01-.2.02-.3.03-.09,0-.17.02-.26.03-.37.05-.74.11-1.11.16-.78.12-1.58.24-2.38.32-1.54.15-2.9.23-4.14.25-1.39.02-2.65-.02-3.85-.13-.43-.04-.87-.07-1.3-.1-.79-.05-1.61-.11-2.42-.23-.44-.07-.89-.13-1.33-.19-.8-.11-1.64-.23-2.45-.37l-.15-.03c-.18-.03-.37-.07-.56-.11-.4-.09-.79-.18-1.19-.27-.19-.04-.38-.09-.57-.13-.02,0-.05,0-.08,0-.16-.04-.32-.07-.49-.11-.41-.09-.84-.19-1.26-.3-.39-.1-.78-.21-1.16-.32l-.1-.03c-.2-.06-.4-.12-.61-.18-.33-.1-.68-.21-1.01-.3-.1-.03-.19-.04-.27-.04,0,.03,0,.05,0,.07,0,.06,0,.12,0,.18,0,0,0,.02,0,.03,0,.03,0,.06,0,.08Z"/>
</svg>