<?xml version="1.0" encoding="UTF-8"?>
<svg id="Layer_1" data-name="Layer 1" xmlns="http://www.w3.org/2000/svg" version="1.1" viewBox="0 0 66.86 66.86">
  <defs>
    <style>
      .cls-1 {
        fill: #5379bc;
      }

      .cls-1, .cls-2, .cls-3, .cls-4, .cls-5 {
        stroke-width: 0px;
      }

      .cls-2 {
        fill: #35a352;
      }

      .cls-3 {
        fill: #e54335;
      }

      .cls-4 {
        fill: #f5b719;
      }

      .cls-5 {
        fill: #fff;
      }
    </style>
  </defs>
  <rect class="cls-5" x="0" y="0" width="66.86" height="66.86" rx="26.74" ry="26.74" transform="translate(66.86 66.86) rotate(180)"/>
  <path class="cls-1" d="M53.44,33.89c0-1.35-.12-2.62-.32-3.87h-19.24v7.68h11.02c-.49,2.52-1.94,4.65-4.09,6.1v5.11h6.57c3.85-3.56,6.06-8.8,6.06-15.02Z"/>
  <path class="cls-2" d="M33.87,53.87c5.52,0,10.13-1.84,13.51-4.96l-6.57-5.11c-1.84,1.23-4.17,1.98-6.93,1.98-5.33,0-9.84-3.59-11.46-8.45h-6.78v5.26c3.36,6.68,10.25,11.27,18.24,11.27Z"/>
  <path class="cls-4" d="M22.4,37.33c-.43-1.23-.65-2.54-.65-3.9s.24-2.67.65-3.9v-5.26h-6.78c-1.4,2.76-2.2,5.86-2.2,9.16s.8,6.4,2.2,9.16l6.78-5.26Z"/>
  <path class="cls-3" d="M33.87,21.08c3.01,0,5.71,1.04,7.83,3.07l5.82-5.82c-3.53-3.3-8.14-5.33-13.66-5.33-7.99,0-14.88,4.6-18.24,11.27l6.78,5.26c1.62-4.85,6.13-8.45,11.46-8.45Z"/>
</svg>