<?xml version="1.0" encoding="UTF-8"?>
<svg id="Layer_1" data-name="Layer 1" xmlns="http://www.w3.org/2000/svg" version="1.1" viewBox="0 0 67.72 81.81">
  <defs>
    <style>
      .cls-1 {
        fill: #98c4e4;
      }

      .cls-1, .cls-2, .cls-3 {
        stroke-width: 0px;
      }

      .cls-2 {
        fill: #e8f6fc;
      }

      .cls-3 {
        fill: #fff;
      }
    </style>
  </defs>
  <path class="cls-3" d="M67.05,19.46C66.35,9.02,57.86.58,47.42-.06c-3.51-.22-6.85.44-9.83,1.76-.55.24-.61.63-.59.86.01.06.02.12.04.18.78,2.99,5.65,5.04,5.65,5.04-2.97-.34-11.61-5.63-11.65-5.65C27.84.52,24.18-.29,20.3-.06,9.86.58,1.37,9.02.67,19.46c-.02.29-.03.57-.04.86-.11,4,1.09,7.92,3.24,11.29l1.8,2.83c1.15,1.71,2.06,3.55,2.74,5.47.57-.26,1.19-.4,1.84-.4h47.25c.64,0,1.26.14,1.84.39.68-1.92,1.59-3.76,2.74-5.46l1.8-2.83c2.15-3.37,3.35-7.29,3.24-11.29,0-.29-.02-.57-.04-.86ZM14.29,6.93C6.75,13.82,6.18,23.5,6.17,23.59l-.1,2.02-.31-2c-1.01-6.48,1.31-10.77,3.42-13.22,2.29-2.66,4.79-3.76,4.89-3.81l1.15-.5-.92.84Z"/>
  <polygon class="cls-3" points="29.22 47.95 23.63 53.54 25.29 61.92 39.45 47.95 29.22 47.95"/>
  <path class="cls-3" d="M28.87,79.96c.09.39.5,1.94,1.81,1.94h.36l9.25-9.25,2.51-12.65-14.93,14.93,1,5.03Z"/>
  <polygon class="cls-2" points="42.04 47.95 25.75 64.24 27.42 72.63 43.43 56.83 43.43 56.83 45.19 47.95 42.04 47.95"/>
  <path class="cls-2" d="M36.68,81.91c1.63,0,2.06-1.44,2.16-1.89l.03-.14.77-3.88-5.91,5.91h2.95Z"/>
  <polygon class="cls-2" points="26.52 47.95 22.52 47.95 23.19 51.29 26.52 47.95"/>
  <path class="cls-1" d="M59.36,39.91c-.59-.27-1.22-.41-1.88-.41H10.23c-.66,0-1.3.14-1.87.41-.49.22-.93.53-1.32.91-.85.86-1.32,1.99-1.32,3.19,0,2.29,1.72,4.22,3.98,4.47.17.02.34.03.53.03h47.25c.19,0,.37-.01.52-.03,1-.11,1.95-.57,2.67-1.29.85-.85,1.32-1.98,1.32-3.19,0-1.76-1.03-3.37-2.63-4.1Z"/>
</svg>