<?xml version="1.0" encoding="UTF-8"?>
<svg id="Layer_1" data-name="Layer 1" xmlns="http://www.w3.org/2000/svg" version="1.1" viewBox="0 0 90.81 90.14">
  <defs>
    <style>
      .cls-1 {
        fill: #fff;
        stroke-width: 0px;
      }
    </style>
  </defs>
  <path class="cls-1" d="M52.59,51.11s-.46,17.77,24.79,24.79c-7.35-25.25-24.79-24.79-24.79-24.79"/>
  <path class="cls-1" d="M38.22,36.87s.46-17.71-24.79-24.79c7.35,25.25,24.79,24.79,24.79,24.79"/>
  <path class="cls-1" d="M45.44,55.17s-12.86,12.2,0,35.03c12.72-22.96,0-35.03,0-35.03"/>
  <path class="cls-1" d="M45.37,34.97S58.23,22.77,45.37-.05c-12.72,23.02,0,35.03,0,35.03"/>
  <path class="cls-1" d="M55.54,45.01s12.2,12.86,35.03,0c-23.02-12.66-35.03,0-35.03,0"/>
  <path class="cls-1" d="M35.27,45.14s-12.2-12.86-35.03,0c23.02,12.66,35.03,0,35.03,0"/>
  <path class="cls-1" d="M52.52,36.81s17.71.46,24.79-24.79c-25.25,7.28-24.79,24.79-24.79,24.79"/>
  <path class="cls-1" d="M38.29,51.17s-17.77-.46-24.79,24.79c25.25-7.35,24.79-24.79,24.79-24.79"/>
  <path class="cls-1" d="M72.13,63.83c-8.2-13.05-19.55-12.79-19.55-12.79,0,0-.33,11.61,12.92,19.74,2.56-1.9,4.79-4.26,6.62-6.95"/>
  <path class="cls-1" d="M38.22,36.87s.26-10.63-11.28-18.69c-2.82,1.97-5.38,4.39-7.48,7.08,8.13,11.87,18.76,11.61,18.76,11.61"/>
  <path class="cls-1" d="M45.44,55.17s-8.07,7.67-5.05,22.17c1.64.26,3.28.39,4.98.39s3.35-.13,4.98-.39c3.08-14.56-4.92-22.17-4.92-22.17"/>
  <path class="cls-1" d="M45.37,34.97s8.07-7.67,5.05-22.17c-1.64-.26-3.28-.39-4.98-.39s-3.35.13-4.98.39c-3.08,14.56,4.92,22.17,4.92,22.17"/>
  <path class="cls-1" d="M55.54,45.01s7.67,8.07,22.17,5.05c.26-1.64.39-3.28.39-4.98s-.13-3.35-.39-4.98c-14.63-3.02-22.17,4.92-22.17,4.92"/>
  <path class="cls-1" d="M35.27,45.14s-7.67-8.07-22.17-5.05c-.26,1.64-.39,3.28-.39,4.98s.13,3.35.39,4.98c14.63,3.02,22.17-4.92,22.17-4.92"/>
  <path class="cls-1" d="M52.52,36.81s10.76.26,18.82-11.54c-2.1-2.75-4.59-5.18-7.48-7.08-11.61,8.07-11.35,18.63-11.35,18.63"/>
  <path class="cls-1" d="M38.29,51.17s-11.48-.33-19.61,12.66c1.84,2.62,4.13,4.98,6.62,7.02,13.31-8.26,12.99-19.68,12.99-19.68"/>
  <path class="cls-1" d="M64.65,55.57c-6.3-4.66-12-4.46-12-4.46,0,0-.13,5.97,4.66,12.4,3.02-1.97,5.58-4.72,7.35-7.94"/>
  <path class="cls-1" d="M38.22,36.87s.13-5.05-3.61-10.82c-3.02,1.71-5.58,4.13-7.48,7.02,5.9,3.94,11.08,3.8,11.08,3.8"/>
  <path class="cls-1" d="M45.44,55.17s-4,3.8-5.31,11.15c1.71.39,3.41.66,5.25.66s3.61-.26,5.31-.66c-1.25-7.35-5.25-11.15-5.25-11.15"/>
  <path class="cls-1" d="M45.37,34.97s4-3.8,5.31-11.15c-1.71-.39-3.48-.66-5.25-.66s-3.61.26-5.31.66c1.25,7.35,5.25,11.15,5.25,11.15"/>
  <path class="cls-1" d="M66.62,39.76c-7.35,1.25-11.08,5.25-11.08,5.25,0,0,3.8,4,11.15,5.31.39-1.71.66-3.41.66-5.25s-.26-3.61-.72-5.31"/>
  <path class="cls-1" d="M35.27,45.14s-3.8-4-11.15-5.31c-.39,1.71-.66,3.41-.66,5.25s.26,3.61.66,5.31c7.41-1.31,11.15-5.25,11.15-5.25"/>
  <path class="cls-1" d="M56.19,25.98c-3.74,5.77-3.61,10.76-3.61,10.76,0,0,5.25.13,11.15-3.8-1.97-2.82-4.53-5.25-7.54-6.95"/>
  <path class="cls-1" d="M38.29,51.17s-5.77-.13-12.07,4.46c1.77,3.21,4.33,5.9,7.35,7.87,4.85-6.43,4.72-12.33,4.72-12.33"/>
</svg>