<?xml version="1.0" encoding="UTF-8"?>
<svg id="Layer_1" data-name="Layer 1" xmlns="http://www.w3.org/2000/svg" version="1.1" viewBox="0 0 710.9 77.92">
  <defs>
    <style>
      .cls-1 {
        fill: #fff;
        stroke-width: 0px;
      }
    </style>
  </defs>
  <g id="Layer_1-2" data-name="Layer 1">
    <g>
      <g>
        <path class="cls-1" d="M185.28.63c1.63,0,4.79,0,7.19,1.92,1.73,1.34,2.69,3.64,2.69,6.14,0,3.84-2.59,5.37-3.36,5.75,1.92.29,3.07,1.15,3.84,1.92,1.73,1.73,2.11,4.03,2.11,5.56,0,1.73-.48,4.12-2.59,5.95-2.21,1.92-4.89,2.4-7.48,2.4h-9.88l.1-29.54,7.38-.1ZM183.55,25.46h2.49c1.05,0,2.69,0,3.93-.77,1.44-.86,1.82-2.21,1.82-3.36,0-.96-.29-2.49-2.11-3.36-1.25-.58-2.69-.58-3.93-.58h-2.11l-.1,8.06ZM183.65,12.9h1.63c.86,0,4.51-.1,4.51-3.84,0-2.69-2.11-3.74-4.41-3.74h-1.73v7.58Z"/>
        <path class="cls-1" d="M241.67,5.8h-10.64v6.62h10.17v4.99h-10.17v8.06h10.64v4.99l-16.4-.1.1-29.54,16.4.1-.1,4.89Z"/>
        <path class="cls-1" d="M286.74,24.41l-11.89-.1-2.69,6.14h-6.23l12.85-29.44h4.51l12.18,29.54h-6.23l-2.49-6.14ZM285.01,19.71l-4.12-10.64-4.22,10.64h8.34Z"/>
        <path class="cls-1" d="M341.5,29.78c-1.73.96-4.12,1.73-7.29,1.73-5.18,0-8.34-1.82-10.74-4.12-3.36-3.26-4.7-7-4.7-11.32,0-5.37,2.21-9.21,4.79-11.51,2.97-2.78,6.62-3.84,10.84-3.84,2.11,0,4.51.38,7.29,1.82v6.71c-2.69-3.07-6.04-3.36-7.1-3.36-5.95,0-9.78,4.79-9.78,10.26,0,6.52,4.99,10.07,9.97,10.17,2.78,0,5.18-1.15,6.9-3.16l-.19,6.62Z"/>
        <path class="cls-1" d="M374.78,12.9l12.47.1.1-11.41h5.75l-.1,29.54h-5.75l.1-13.14-12.47-.1-.1,13.14h-5.75l.1-29.54h5.75l-.1,11.41Z"/>
        <path class="cls-1" d="M479.79,20.48c-1.82,2.21-2.4,2.69-3.16,3.55l-.67.67,5.95,6.81h-7.1l-2.88-3.36c-1.34,1.25-4.79,3.93-9.49,3.93-6.04,0-9.21-4.22-9.21-8.54s3.45-6.62,4.79-7.48l2.3-1.34c-1.05-1.05-2.97-3.36-2.97-6.23,0-3.64,2.69-7.29,8.15-7.29,5.18,0,7.86,3.45,7.86,7.1,0,2.11-1.05,4.6-4.22,6.52l-1.25.77,4.79,5.56c2.01-1.92,3.07-3.26,3.64-4.03l3.45,3.36ZM463.2,17.98c-2.3,1.15-4.22,2.78-4.22,5.08s1.82,3.93,4.32,3.93,4.51-1.53,5.47-2.49l-5.56-6.52ZM465.21,12.52l1.34-.96c1.63-1.05,2.01-2.3,2.01-3.26,0-1.44-.86-2.88-2.88-2.97-2.11,0-2.97,1.44-2.97,2.69,0,1.15.58,2.01,1.25,2.78l1.25,1.73Z"/>
        <path class="cls-1" d="M551.52,31.79h-4.32l-10.17-29.54h6.14l6.52,20.14,7.29-20.33h3.16l6.71,20.33,7.19-20.04h6.14l-11.03,29.44h-4.32l-6.33-18.7-7,18.7Z"/>
        <path class="cls-1" d="M611.36,7.53v6.62h10.17v4.99h-10.17v8.06h10.64v4.99l-16.4-.1.1-29.54,16.4.1-.1,4.89h-10.64"/>
        <path class="cls-1" d="M664.2,9.45c-1.73-2.3-3.74-2.49-4.79-2.59-3.07,0-4.12,1.92-4.12,3.45,0,.67.19,1.34.96,2.01.67.67,1.63,1.05,3.55,1.73,2.3.77,4.51,1.63,5.95,2.97,1.34,1.25,2.49,3.16,2.49,6.23,0,5.75-4.22,9.69-10.26,9.69-5.47,0-8.63-3.36-10.17-5.66l3.74-3.55c1.44,2.88,4.12,3.93,6.14,3.93,2.59,0,4.6-1.53,4.6-4.03,0-1.05-.38-1.92-1.15-2.69-1.05-1.05-2.88-1.63-4.51-2.21-1.53-.58-3.36-1.25-4.89-2.59-.96-.86-2.3-2.49-2.3-5.47,0-4.32,2.97-8.63,9.49-8.63,1.82,0,5.37.38,8.34,3.45l-3.07,3.93Z"/>
        <path class="cls-1" d="M704.29,7.91l-.1,24.55h-5.75l.1-24.55h-6.62V2.93l18.99.1v4.99l-6.62-.1Z"/>
      </g>
      <g>
        <path class="cls-1" d="M302.28,50.97v12.95h.1l7.1-12.95h2.97l-4.89,8.92,5.85,16.59h-2.97l-4.7-13.71h-.1l-3.36,5.95v7.86h-2.78v-25.41l2.78-.19Z"/>
        <path class="cls-1" d="M330.66,50.97v2.3h-8.92v8.63h6.52v2.3h-6.52v9.78h9.3v2.3h-12.08v-25.41l11.7.1Z"/>
        <path class="cls-1" d="M341.12,50.97v25.41h-2.78v-25.41h2.78Z"/>
        <path class="cls-1" d="M363.27,50.97v12.95h.1l7.1-12.95h2.97l-4.89,8.92,5.85,16.59h-2.97l-4.7-13.71h-.1l-3.36,5.95v7.86h-2.78v-25.41l2.78-.19Z"/>
        <path class="cls-1" d="M383.02,50.97v25.41h-2.78v-25.41h2.78Z"/>
        <path class="cls-1" d="M395.39,50.88l4.41,19.18h.1l4.32-19.18h4.41v25.41h-2.49v-23.3h-.1l-5.27,23.3h-1.82l-5.27-23.3h-.1v23.3h-2.49v-25.41h4.32Z"/>
        <path class="cls-1" d="M427.71,50.88h4.7c5.37,0,8.63,2.97,8.63,12.75s-3.26,12.75-8.63,12.75h-4.7v-25.51ZM430.49,73.99h1.44c4.03,0,6.33-1.73,6.33-10.36s-2.3-10.36-6.33-10.36h-1.44v20.71Z"/>
        <path class="cls-1" d="M448.91,50.88h4.7c5.37,0,8.63,2.97,8.63,12.75s-3.26,12.75-8.63,12.75h-4.7v-25.51ZM451.59,73.99h1.44c4.03,0,6.33-1.73,6.33-10.36s-2.3-10.36-6.33-10.36h-1.44v20.71Z"/>
        <path class="cls-1" d="M479.11,57.49c-.19-2.59-1.25-4.6-3.93-4.6-2.11,0-3.45,1.44-3.45,3.36,0,5.75,10.17,5.85,10.26,14,0,4.03-2.3,6.52-6.52,6.52-3.93,0-6.33-2.88-6.43-7.19h2.49c.1,2.97,1.44,4.89,4.22,4.89,2.3,0,3.74-1.44,3.74-4.22,0-5.75-10.17-6.43-10.26-13.71,0-3.55,2.49-5.95,6.14-5.95s6.04,2.49,6.23,6.9h-2.49Z"/>
      </g>
      <g>
        <path class="cls-1" d="M177.89,50.97h4.41c5.56,0,6.04,3.55,6.04,7.38v10.07c0,3.93-.58,7.86-6.23,7.86h-4.22v-25.32ZM180.29,74.28h1.63c3.16,0,4.03-1.73,4.03-5.27v-10.93c0-3.07-.58-4.99-3.93-4.99h-1.63l-.1,21.19Z"/>
        <path class="cls-1" d="M203.6,63.92h-5.75v10.26h6.52l-.38,2.21h-8.54v-25.41h8.44v2.21h-6.04v8.54h5.75v2.21Z"/>
        <path class="cls-1" d="M210.4,76.39v-25.41h2.88c1.44,4.99,5.08,18.51,5.56,20.71h.1c-.1-3.45-.19-7.1-.19-11.22v-9.49h2.3v25.41h-2.78c-1.44-5.18-5.18-19.18-5.75-21.48h0c.19,3.07.29,7.29.29,11.89v9.59h-2.4Z"/>
        <path class="cls-1" d="M231.02,53.18h-4.12v-2.21h10.64v2.21h-4.12v23.21h-2.4v-23.21Z"/>
        <path class="cls-1" d="M244.26,67.95l-1.25,8.44h-2.49l4.22-25.41h3.45l4.41,25.41h-2.49l-1.34-8.44h-4.51ZM248.28,65.74c-.96-5.95-1.63-10.26-1.82-12.56h-.1c-.1,1.92-1.05,7.77-1.73,12.56h3.64Z"/>
        <path class="cls-1" d="M258.64,50.97h2.4v23.21h6.43l-.29,2.21h-8.54v-25.41Z"/>
      </g>
      <path class="cls-1" d="M284.05,48.1v31.36h-2.3v-31.36h2.3Z"/>
      <path class="cls-1" d="M19.28.24c4.32,0,12.85,0,19.18,4.89,4.6,3.45,7.29,9.49,7.29,15.92,0,9.97-6.71,14-8.82,15.15,5.18.77,8.25,2.97,10.26,4.89,4.7,4.41,5.66,10.36,5.66,14.48,0,4.51-1.25,10.84-6.71,15.63-5.85,5.08-13.04,6.23-19.85,6.23H0V.34h19.28v-.1ZM15.15,32.27h4.32c2.4,0,11.89-.19,11.89-10.07,0-7-5.56-9.69-11.8-9.69h-4.51v19.76h.1ZM15.15,65.07h6.62c2.78,0,7.1-.1,10.45-2.11,3.74-2.21,4.79-5.85,4.79-8.92,0-2.4-.86-6.62-5.75-8.82-3.26-1.53-7.19-1.53-10.45-1.53h-5.66v21.39Z"/>
      <g>
        <polygon class="cls-1" points="123.42 .24 92.83 .24 107.7 52.7 123.42 .24"/>
        <polygon class="cls-1" points="85.35 .24 54.95 .24 69.53 52.7 85.35 .24"/>
        <polygon class="cls-1" points="73.75 77.34 103.09 77.34 88.8 28.44 73.75 77.34"/>
        <polygon class="cls-1" points="112.78 77.34 136.94 77.34 136.94 .24 112.78 77.34"/>
      </g>
    </g>
  </g>
</svg>