<?xml version="1.0" encoding="UTF-8"?>
<svg id="Layer_1" data-name="Layer 1" xmlns="http://www.w3.org/2000/svg" version="1.1" viewBox="0 0 53.23 65.97">
  <defs>
    <style>
      .cls-1 {
        fill: #1f5796;
        stroke-width: 0px;
      }
    </style>
  </defs>
  <path class="cls-1" d="M35.38,5.34c0,2.6-.01,5.2,0,7.8.01,1.93,1.07,3.52,2.81,4.15.61.22,1.3.31,1.96.32.9.01,1.8.02,2.7.02h2.1c.9,0,1.8,0,2.71,0,.27,0,.54,0,.78,0,0,0,0,0,0,0h4.55c0-.73,0-1.46,0-2.19,0-2.13-.72-3.89-2.24-5.38-2.58-2.53-5.15-5.07-7.66-7.67C41.49.73,39.62-.02,37.32-.02c-.65,0-1.3,0-1.95,0v5.35Z"/>
  <path class="cls-1" d="M24.21,42.7c1.36-.42,2.84-.78,3.87-1.03.36-.09.71-.17.94-.23-.76-.81-1.95-2.24-2.82-3.59-.45,1.26-1.29,3.37-1.99,4.85Z"/>
  <path class="cls-1" d="M25.71,24.72c0-.67-.12-1.82-.9-1.82-.22,0-.46.16-.63.41-.22.4-.43,1.29-.38,2.63.04.97.23,2.5.9,4.46.58-1.83.92-3.74,1.01-5.68Z"/>
  <path class="cls-1" d="M10.88,52.45c-.1.41.05.58.2.68.18.09.35.17.5.17,1,0,3.13-1.76,5.57-5.62-3.67,1.73-6,3.49-6.28,4.76Z"/>
  <path class="cls-1" d="M52.99,20.81h-4.48s0,.01,0,.02h-3.21s0,0,0,0c-.57,0-1.15,0-1.72,0-1.36,0-2.47,0-3.48-.02-1.11-.02-2.12-.19-3.01-.51-2.97-1.07-4.9-3.88-4.93-7.15,0-.77,0-1.55,0-2.33v-2.28c0-.15,0-.31,0-.46,0-.15,0-.3,0-.45,0,0,0,0,0,0v-3.21s0,0,0,0V0C23.19,0,14.22,0,5.24,0c-.27,0-.55,0-.82,0C2.32.12.62,1.63.28,3.7c-.07.44-.08.89-.08,1.33,0,9.31,0,18.62,0,27.92,0,9.26,0,18.52,0,27.78,0,.35,0,.69.01,1.04.12,2.07,1.55,3.73,3.56,4.12.46.09.94.09,1.4.09,14.28,0,28.57,0,42.85,0,.25,0,.5,0,.74,0,.97-.04,1.84-.37,2.59-.98,1.2-.98,1.64-2.29,1.64-3.81,0-13.45,0-26.91,0-40.36ZM44.39,45.62c-.32.95-1.26,2.09-3.9,2.09-2.19,0-5.58-.69-9.39-3.98-3.26.6-6.52,1.58-8.7,2.3-3.79,6.51-7.13,9.67-10.2,9.67-1.01,0-1.97-.35-2.71-.98h-.01c-.78-.79-1.1-1.8-.88-2.78.48-2.87,5.57-5.55,9.8-7.3,2.66-5.04,3.73-8.07,4.77-11l.18-.5c-1.97-4.49-2.43-8.8-1.18-10.98.6-.96,1.61-1.55,2.65-1.55,1.38,0,2.49.63,3.21,1.81.58.96.9,2.29.9,3.74-.09,2.73-.61,5.43-1.62,8.48v.02c.65,1.07,2.34,3.89,4.75,6.23.09-.01.18-.02.29-.04,2.43-.31,8.9-1.12,11.48,1.55h0c.84.97,1.05,2.2.55,3.21Z"/>
  <path class="cls-1" d="M39.62,42.78c-1.7-.32-4.1-.2-5.85.03,1.46,1.09,3.05,1.86,4.73,2.3.78.2,1.47.13,1.93-.17.25-.17.42-.41.46-.67h0c.19-.98-.71-1.36-1.27-1.5Z"/>
</svg>