<?xml version="1.0" encoding="UTF-8"?>
<svg id="Layer_1" data-name="Layer 1" xmlns="http://www.w3.org/2000/svg" version="1.1" viewBox="0 0 138.03 138.08">
  <defs>
    <style>
      .cls-1 {
        fill: #98c4e4;
      }

      .cls-1, .cls-2 {
        stroke-width: 0px;
      }

      .cls-2 {
        fill: #1f5796;
      }
    </style>
  </defs>
  <path class="cls-1" d="M69.02,138.08C30.95,138.08-.02,107.11-.02,69.04S30.95,0,69.02,0s69.04,30.97,69.04,69.04-30.97,69.04-69.04,69.04ZM69.02,7.29C34.97,7.29,7.27,34.99,7.27,69.04s27.7,61.75,61.75,61.75,61.75-27.7,61.75-61.75S103.07,7.29,69.02,7.29Z"/>
  <path class="cls-2" d="M77.8,41.39c0,2.6-.01,5.2,0,7.8.01,1.93,1.07,3.52,2.81,4.15.61.22,1.3.31,1.96.32.9.01,1.8.02,2.7.02h2.1c.9,0,1.8,0,2.71,0,.27,0,.54,0,.78,0,0,0,0,0,0,0h4.55c0-.73,0-1.46,0-2.19,0-2.13-.72-3.89-2.24-5.38-2.58-2.53-5.15-5.07-7.66-7.67-1.6-1.65-3.47-2.4-5.77-2.4-.65,0-1.3,0-1.95,0v5.35Z"/>
  <path class="cls-2" d="M95.41,56.87h-4.48s0,.01,0,.02h-3.21s0,0,0,0c-.57,0-1.15,0-1.72,0-1.36,0-2.47,0-3.48-.02-1.11-.02-2.12-.19-3.01-.51-2.97-1.07-4.9-3.88-4.93-7.15,0-.77,0-1.55,0-2.33v-2.28c0-.15,0-.31,0-.46,0-.15,0-.3,0-.45,0,0,0,0,0,0v-3.21s0,0,0,0v-4.44c-8.98.02-17.95,0-26.93,0-.27,0-.55,0-.82,0-2.1.11-3.81,1.62-4.15,3.7-.07.44-.08.89-.08,1.33,0,9.31,0,18.62,0,27.92,0,9.26,0,18.52,0,27.78,0,.35,0,.69.01,1.04.12,2.07,1.55,3.73,3.56,4.12.46.09.94.09,1.4.09,14.28,0,28.57,0,42.85,0,.25,0,.5,0,.74,0,.97-.04,1.84-.37,2.59-.98,1.2-.98,1.64-2.29,1.64-3.81,0-13.45,0-26.91,0-40.36ZM82.48,91c-.32.04-.64.03-.96.03-4.18,0-8.36,0-12.54,0s-8.36,0-12.54,0c-.32,0-.65,0-.96-.04-1.07-.16-1.86-1.11-1.85-2.18.01-1.11.87-2.04,1.97-2.15.25-.02.49-.02.74-.02,8.44,0,16.87,0,25.31,0,.25,0,.5,0,.74.02,1.16.09,2.01,1.01,2.02,2.17,0,1.13-.79,2.05-1.92,2.18ZM82.48,77.81c-.32.04-.64.03-.96.03-4.18,0-8.36,0-12.54,0s-8.36,0-12.54,0c-.32,0-.65,0-.96-.04-1.07-.16-1.86-1.11-1.85-2.18.01-1.11.87-2.04,1.97-2.15.25-.02.49-.02.74-.02,8.44,0,16.87,0,25.31,0,.25,0,.5,0,.74.02,1.16.09,2.01,1.01,2.02,2.17,0,1.13-.79,2.05-1.92,2.18ZM82.64,64.6c-.31.06-.64.06-.96.06-4.23,0-8.46,0-12.69,0-4.21,0-8.41,0-12.62,0-.34,0-.7,0-1.03-.08-1.07-.23-1.8-1.23-1.71-2.29.09-1.08.95-1.94,2.03-2.03.22-.02.45-.01.67-.01,8.46,0,16.92,0,25.39,0,.22,0,.45,0,.67.01,1.12.09,1.98.98,2.03,2.09.05,1.09-.68,2.03-1.76,2.24Z"/>
</svg>