<?xml version="1.0" encoding="UTF-8"?>
<svg id="Layer_1" data-name="Layer 1" xmlns="http://www.w3.org/2000/svg" version="1.1" viewBox="0 0 29.99 30.46">
  <defs>
    <style>
      .cls-1 {
        fill: #fff;
        stroke-width: 0px;
      }
    </style>
  </defs>
  <path class="cls-1" d="M22.97,30.22c-1.54,0-2.76-.36-3.96-.81-1.81-.67-3.65-1.28-5.32-2.3-2.79-1.71-5.17-3.9-7.35-6.31-1.67-1.85-3.2-3.81-4.18-6.12-.65-1.53-1.22-3.09-1.74-4.67C-.42,7.51.07,5.18,1.39,2.92,2.29,1.38,3.58.56,5.32.32c1.47-.2,1.62-.13,2.35,1.17.93,1.66,1.89,3.29,2.85,4.93.53.9.54,1.31-.2,2.04-.6.59-1.27,1.11-1.9,1.67-.33.3-.66.61-.98.92-.39.38-.51.83-.24,1.32.51.92,1.02,1.85,1.58,2.74,1.87,2.97,4.38,5.28,7.43,7.01.5.28.99.57,1.49.85.59.33,1.12.24,1.57-.27.48-.54.94-1.09,1.41-1.63.35-.4.69-.81,1.08-1.18.76-.71,1.13-.72,2.02-.19,1.47.87,2.95,1.73,4.43,2.59.44.26.88.5,1.32.77.34.2.48.51.46.91-.06,1.04-.25,2.06-.71,2.98-.23.47-.65.88-1.07,1.21-1.6,1.25-3.4,2.04-5.23,2.07Z"/>
</svg>