<?xml version="1.0" encoding="UTF-8"?>
<svg id="Layer_1" data-name="Layer 1" xmlns="http://www.w3.org/2000/svg" version="1.1" viewBox="0 0 83.31 83.56">
  <defs>
    <style>
      .cls-1 {
        fill: #98c4e4;
      }

      .cls-1, .cls-2, .cls-3 {
        stroke-width: 0px;
      }

      .cls-2 {
        fill: #1f5796;
      }

      .cls-3 {
        fill: #fff;
      }
    </style>
  </defs>
  <path class="cls-3" d="M26.71,83.49c-.16,0-.32-.07-.44-.18L.13,57.17c-.13-.13-.19-.3-.18-.48.01-.18.1-.34.23-.45L55.97,12.16c.25-.2.6-.17.82.05l14.43,14.43c.22.22.24.58.05.82l-44.08,55.79c-.11.14-.27.22-.45.23-.01,0-.02,0-.04,0Z"/>
  <polygon class="cls-3" points="1.5 56.79 26.65 81.94 69.96 27.13 56.31 13.48 1.5 56.79"/>
  <path class="cls-1" d="M57.25,12.66l13.52,13.52c1.81-2.11,2.41-5,1.56-7.69-.38-1.22-1.07-2.35-1.99-3.27l-2.14-2.14c-.92-.92-2.05-1.6-3.27-1.99-.79-.25-1.61-.38-2.44-.38-1.95,0-3.79.69-5.25,1.94Z"/>
  <path class="cls-3" d="M72.93,18.93s-.1,0-.15-.02c-.21-.05-.38-.21-.44-.42-.38-1.22-1.07-2.35-1.99-3.27l-2.14-2.14c-.92-.92-2.05-1.6-3.27-1.99-.21-.07-.37-.23-.42-.44-.05-.21.01-.43.16-.59L74.45.31c.24-.24.64-.24.88,0l7.8,7.8c.24.24.24.64,0,.88l-9.76,9.76c-.12.12-.28.18-.44.18Z"/>
  <path class="cls-3" d="M66.25,10.27c1.05.46,2.02,1.12,2.84,1.94l2.14,2.14c.82.82,1.48,1.79,1.94,2.84l8.64-8.64-6.93-6.93-8.64,8.64Z"/>
  <path class="cls-1" d="M26.71,83.49c-.16,0-.32-.07-.44-.18L.13,57.17c-.13-.13-.19-.3-.18-.48.01-.18.1-.34.23-.45l5.99-4.73c.25-.2.6-.17.82.05l24.88,24.88c.22.22.24.58.05.82l-4.73,5.99c-.11.14-.27.22-.45.23-.01,0-.02,0-.04,0Z"/>
  <polygon class="cls-1" points="1.5 56.79 26.65 81.94 30.61 76.93 6.51 52.83 1.5 56.79"/>
  <path class="cls-2" d="M38.61,55.4c-2.71,0-5.41-1.03-7.47-3.09-2-2-3.1-4.65-3.1-7.47s1.1-5.48,3.1-7.47,4.65-3.1,7.47-3.1,5.48,1.1,7.47,3.1,3.1,4.65,3.1,7.47-1.1,5.48-3.1,7.47h0c-2.06,2.06-4.77,3.09-7.47,3.09Z"/>
  <path class="cls-2" d="M38.61,35.5c-2.49,0-4.83.97-6.6,2.73-1.76,1.76-2.73,4.1-2.73,6.6s.97,4.83,2.73,6.6c3.64,3.64,9.56,3.64,13.19,0,1.76-1.76,2.73-4.1,2.73-6.6s-.97-4.83-2.73-6.6c-1.76-1.76-4.1-2.73-6.6-2.73Z"/>
  <path class="cls-2" d="M45.64,51.87h0,0Z"/>
  <path class="cls-1" d="M70.79,27.7c-.16,0-.32-.06-.44-.18l-14.43-14.43c-.12-.12-.18-.27-.18-.44s.07-.32.18-.44c1.76-1.76,4.1-2.73,6.58-2.73.96,0,1.91.15,2.81.44,1.41.44,2.71,1.23,3.77,2.29l2.14,2.14c1.06,1.06,1.85,2.36,2.29,3.77,1.05,3.33.18,6.93-2.29,9.39-.12.12-.28.18-.44.18Z"/>
</svg>