<?xml version="1.0" encoding="UTF-8"?>
<svg id="Layer_1" data-name="Layer 1" xmlns="http://www.w3.org/2000/svg" version="1.1" viewBox="0 0 67.72 81.81">
  <defs>
    <style>
      .cls-1 {
        fill: #fff;
        stroke-width: 0px;
      }
    </style>
  </defs>
  <path class="cls-1" d="M67.67,19.91C66.95,9.29,58.31.69,47.67.04c-4.23-.26-8.22.71-11.63,2.59,0,0-.33.22,0,.45,1.7,1.2,6.55,4.27,6.55,4.27-3.56-.52-10.9-4.72-10.9-4.72C28.27.75,24.28-.22,20.05.04,9.42.69.77,9.29.05,19.91c-.02.29-.03.58-.04.87-.11,4.07,1.11,8.06,3.3,11.5l1.83,2.88c2.96,4.39,4.45,9.63,4.16,14.91-.1,1.8-.29,3.58-.46,5.29-1.01,10.05-1.34,26.44,7.13,26.44,11.97,0-.08-23.64,15.91-29.98.29-.12.74-.21,1.14-.27.68-.11,1.37-.12,2.04.03.26.06.52.14.77.24,15.99,6.34,3.94,29.98,15.91,29.98,8.47,0,8.14-16.39,7.13-26.44-.17-1.71-.35-3.5-.46-5.29-.3-5.28,1.2-10.52,4.16-14.91l1.83-2.88c2.18-3.43,3.41-7.43,3.3-11.5,0-.29-.02-.58-.04-.87ZM14.95,8.06c-6.2,8.15-6.63,17.93-6.63,18.03l-.09,2.35-.83-2.2c-1.1-2.93-1.33-5.96-.66-8.75.05-.22.11-.43.17-.64h0c1.14-4.02,3.77-7.39,7.42-9.48l2.01-1.15-1.4,1.85Z"/>
</svg>