<?xml version="1.0" encoding="UTF-8"?>
<svg id="Layer_1" data-name="Layer 1" xmlns="http://www.w3.org/2000/svg" version="1.1" viewBox="0 0 66.86 66.86">
  <defs>
    <style>
      .cls-1 {
        fill: #ee2c28;
      }

      .cls-1, .cls-2 {
        stroke-width: 0px;
      }

      .cls-2 {
        fill: #fff;
      }
    </style>
  </defs>
  <rect class="cls-2" x="0" y="0" width="66.86" height="66.86" rx="26.74" ry="26.74" transform="translate(66.86 66.86) rotate(180)"/>
  <path class="cls-1" d="M44.78,52.68c-.73.05-1.28-.31-1.77-.8-.58-.58-.97-1.29-1.37-1.99-.89-1.56-1.74-3.14-2.58-4.72-.76-1.41-1.48-2.84-2.23-4.25-.37-.7-.46-1.46-.32-2.21.14-.71.63-1.19,1.3-1.48.93-.4,1.79-.08,2.59.32,2.08,1.04,4.14,2.13,6.19,3.24,1.3.7,2.56,1.46,3.84,2.2.15.09.29.19.43.3,1.39,1.04,1.45,2.34.76,3.76-.51,1.04-1.23,1.92-2.02,2.75-.97,1.03-2.06,1.92-3.34,2.53-.47.22-.95.39-1.48.35Z"/>
  <path class="cls-1" d="M13.6,34.66c.09-.93.11-1.88.3-2.79.21-.99.43-2.02,1.13-2.82.65-.74,1.44-1.06,2.46-.82,1.5.35,2.94.86,4.37,1.41.65.25,1.32.45,1.98.68,1.14.41,2.28.84,3.42,1.26.66.25,1.32.48,1.96.77.73.34,1.29.84,1.59,1.65.31.83-.09,2.03-.68,2.52-.43.36-.9.6-1.47.69-.45.07-.89.22-1.33.33-.43.1-.85.21-1.28.3-.46.1-.94.15-1.4.26-.42.1-.83.25-1.26.36-.32.09-.65.15-.98.22-1.6.35-3.21.69-4.81,1.04-.81.17-1.62,0-2.38-.26-1.21-.95-1.36-2.18-1.5-3.4-.05-.46-.05-.92-.07-1.38h-.05Z"/>
  <path class="cls-1" d="M33.9,40.92c-.02-.11-.03-.22-.05-.33-.02-.12-.05-.23-.07-.31-.08-.28-.21-.56-.38-.79-.7-.96-2.18-1-3.06-.38-.73.52-1.24,1.24-1.75,1.95-1.69,2.31-3.35,4.65-5,7-.41.58-.79,1.2-1.13,1.83-.75,1.38-.42,2.47.73,3.49.66.58,1.45.95,2.22,1.34.75.38,1.54.67,2.36.84,1.6.34,3.18.82,4.87-.24.63-.88.86-1.88.94-2.91.04-.53.05-1.06.08-1.59.11-2.5.21-4.99.32-7.49.05-1.12,0-1.88-.08-2.41Z"/>
  <path class="cls-1" d="M35.58,8.98c-.29-1.11-1.05-1.78-2.09-2.12-.17-.06-.35-.09-.52-.13-.5-.11-1.31-.24-2.27-.22-.36.04-.72.07-1.08.12-.54.08-1.09.13-1.62.27-.99.26-1.98.54-2.94.88-1.02.36-1.99.84-2.82,1.57-1.07.95-1.33,2.14-1,3.47.16.62.42,1.23.7,1.82.34.7.7,1.39,1.07,2.07,1.22,2.21,2.45,4.41,3.68,6.62.84,1.51,1.66,3.02,2.51,4.51.38.65.78,1.31,1.25,1.89,1.18,1.45,3.17,1.21,4.09-.27.38-.62.45-1.33.52-2.03.11-1.11.15-2.22.21-3.34.09-1.52.18-3.04.25-4.56.11-2.12.2-4.25.29-6.13.09-1.69-.01-3.49-.25-4.42Z"/>
  <path class="cls-1" d="M52.41,26.42c-.28-.77-.67-1.5-1.14-2.17-.68-.95-1.31-1.96-2.33-2.6-1.19-.74-1.8-.75-2.97-.04-.52.31-.95.72-1.37,1.14l-5.91,6.04h0c-.66.69-1.36,1.35-1.88,2.16-.48.75-.61,1.57-.24,2.36.42.93,1.17,1.49,2.26,1.47.23-.02.46-.01.69-.06,1.07-.24,2.13-.5,3.2-.76.79-.19,1.58-.38,2.37-.55.75-.17,1.51-.31,2.27-.48.82-.19,1.62-.43,2.44-.59.86-.17,1.67-.46,2.37-.98.79-.58,1.19-1.4,1.09-2.39-.09-.9-.56-1.79-.83-2.55Z"/>
</svg>